<?xml version="1.0" encoding="UTF-8"?>
<svg width="122px" height="142px" viewBox="0 0 122 142" version="1.1" xmlns="http://www.w3.org/2000/svg" xmlns:xlink="http://www.w3.org/1999/xlink">
    <!-- Generator: Sketch 43.2 (39069) - http://www.bohemiancoding.com/sketch -->
    <title>Fruit picking</title>
    <desc>Created with Sketch.</desc>
    <defs></defs>
    <g id="Welcome" stroke="none" stroke-width="1" fill="none" fill-rule="evenodd">
        <g id="Desktop" transform="translate(-131.000000, -2149.000000)" fill-rule="nonzero" fill="#000000">
            <g id="One-Weekend" transform="translate(41.000000, 1962.000000)">
                <g id="Fruit-picking" transform="translate(90.000000, 187.000000)">
                    <path d="M120.099192,34.3458571 C119.247425,33.6183428 118.273976,33.3758381 117.178847,33.4970904 L115.962037,33.6183428 C112.92001,34.1033523 109.147898,35.9221379 107.687725,42.469766 L100.873587,79.330487 C100.630225,80.9067679 98.6833281,82.8468058 97.2231556,84.4230867 L90.409017,91.9407337 L83.3515163,85.3931056 C78.9709987,81.3917774 72.4002222,80.9067679 67.1679373,84.0593295 C65.8294458,84.9080961 65.0993595,86.1206199 64.9776784,87.6969007 C64.8559974,89.1519292 65.3427216,90.4857052 66.559532,91.5769766 L71.6701359,97.2758381 L73.2519895,100.792157 C75.1988863,105.03599 78.1192314,108.794813 81.7696627,111.70487 L92.3559137,120.435041 L97.1014745,141.411701 L101.847035,140.32043 L96.9797935,118.616256 C96.8581124,118.131246 96.6147503,117.646237 96.1280261,117.282479 L84.8116889,107.946047 C81.7696627,105.520999 79.2143608,102.368438 77.6325072,98.7308665 L75.9289725,94.8507906 C75.8072915,94.6082859 75.6856105,94.4870335 75.5639294,94.2445288 L70.0882824,88.1819102 L69.9666013,88.0606578 C73.1303085,86.1206199 77.3891451,86.484377 80.0661281,89.0306768 L88.9488444,97.1545857 C89.4355686,97.6395952 90.0439739,97.8820999 90.6523791,97.7608476 C91.2607843,97.7608476 91.8691895,97.3970904 92.3559137,96.912081 L100.265182,88.1819102 L100.630225,87.6969007 C102.577122,85.6356104 105.010742,83.2105629 105.497467,80.1792536 L112.311605,43.5610373 C113.163373,39.6809614 114.866907,38.8321948 116.32708,38.5896901 L116.205399,76.4204301 C116.205399,78.4817204 116.083718,80.5430108 115.718675,82.4830487 L110.851433,111.947375 C110.729752,112.311132 110.851433,112.796142 110.973114,113.159899 L115.840356,127.225174 L120.464235,125.648893 L115.840356,112.18988 L120.707597,83.3318153 C121.072641,81.0280202 121.194322,78.7242252 121.194322,76.5416825 L121.316003,37.255914 C121.316003,36.0433903 120.950959,35.0733713 120.099192,34.3458571 Z" id="Shape"></path>
                    <path d="M54.3914275,83.9380772 C49.4025046,80.7855155 42.7100471,81.3917774 38.3295294,85.3931056 L31.1503477,91.8194813 L24.8229333,84.7868438 L24.3362092,84.3018343 C22.8760366,82.7255534 21.0508209,80.9067679 20.6857778,79.2092347 L13.8716392,42.3485136 C12.4114667,35.9221379 8.5176732,33.9820999 5.5973281,33.4970904 L4.38051765,33.3758381 C3.28538824,33.2545857 2.31193987,33.4970904 1.46017255,34.2246047 C0.608405229,34.9521189 0.243362092,35.9221379 0.243362092,37.0134092 L0.365043137,76.2991777 C0.365043137,78.6029728 0.486724183,80.9067679 0.85176732,83.2105629 L5.5973281,112.068627 L0.973448366,125.527641 L5.5973281,127.103922 L10.4645699,113.038646 C10.586251,112.674889 10.586251,112.18988 10.586251,111.826123 L5.71900915,82.4830487 C5.47564706,80.4217584 5.23228497,78.3604681 5.23228497,76.2991777 L5.11060392,38.4684377 C6.57077647,38.7109424 8.27431111,39.6809614 9.12607843,43.4397849 L15.940217,80.1792536 C16.5486222,83.2105629 18.8605621,85.7568627 20.8074588,87.6969007 L29.0817699,96.912081 C29.5684941,97.3970904 30.1768993,97.6395952 30.7853046,97.7608476 C31.3937098,97.7608476 32.1237961,97.5183428 32.4888392,97.1545857 L41.3715556,89.0306768 C44.1702196,86.6056293 48.3073752,86.1206199 51.5927634,88.0606578 L51.4710824,88.1819102 L45.9954353,94.2445288 C45.8737542,94.3657812 45.7520732,94.6082859 45.6303922,94.8507906 L44.0485386,98.7308665 C42.466685,102.247185 39.911383,105.520999 36.7476758,107.946047 L25.5530196,117.161227 C25.1879765,117.524984 24.8229333,118.009994 24.7012523,118.495003 L19.8340105,140.199178 L24.5795712,141.290449 L29.325132,120.313789 L39.911383,111.583618 C43.5618144,108.673561 46.6038405,104.914738 48.5507373,100.549652 L50.1325908,97.0333333 L55.2431948,91.3344719 C56.3383242,90.3644529 56.9467294,88.9094244 56.8250484,87.454396 C56.5816863,86.1206199 55.729919,84.7868438 54.3914275,83.9380772 Z" id="Shape"></path>
                    <path d="M49.5241856,55.9287793 C49.5241856,57.141303 48.5507373,58.2325743 47.2122458,58.2325743 C45.9954353,58.2325743 44.9003059,57.2625553 44.9003059,55.9287793 C44.9003059,54.7162555 45.8737542,53.6249842 47.2122458,53.6249842 C48.5507373,53.6249842 49.5241856,54.5950032 49.5241856,55.9287793 Z" id="Shape"></path>
                    <path d="M79.5794039,39.0746996 C79.5794039,40.2872233 78.6059556,41.3784946 77.2674641,41.3784946 C76.0506536,41.3784946 74.9555242,40.4084756 74.9555242,39.0746996 C74.9555242,37.8621758 75.9289725,36.7709045 77.2674641,36.7709045 C78.4842745,36.7709045 79.5794039,37.8621758 79.5794039,39.0746996 Z" id="Shape"></path>
                    <path d="M75.3205673,56.7775459 C75.3205673,57.9900696 74.347119,59.0813409 73.0086275,59.0813409 C71.791817,59.0813409 70.6966876,58.1113219 70.6966876,56.7775459 C70.6966876,55.5650221 71.6701359,54.4737508 73.0086275,54.4737508 C74.347119,54.4737508 75.3205673,55.5650221 75.3205673,56.7775459 Z" id="Shape"></path>
                    <path d="M73.4953516,18.340544 C77.5108261,17.1280202 81.1612575,14.9454775 83.9599216,11.6716635 L87.4886719,7.54908286 C88.0970771,6.82156863 88.2187582,5.85154965 87.853715,5.00278305 C87.4886719,4.15401645 86.6369046,3.54775459 85.7851373,3.54775459 L80.4311712,3.18399747 C73.8603948,2.69898798 67.4112993,5.24528779 62.7874196,9.9741303 L62.7874196,3.79025933 L57.9201778,3.79025933 L57.9201778,10.5803922 L57.4334536,9.9741303 C51.5927634,3.18399747 42.7100471,-0.453573688 33.7056497,0.273940544 L26.526468,0.758950032 C25.5530196,0.758950032 24.8229333,1.36521189 24.4578902,2.21397849 C24.0928471,3.0627451 24.2145281,4.03276407 24.8229333,4.7602783 L29.5684941,10.216635 C33.7056497,14.8242252 39.1812967,17.9767868 45.0219869,19.3105629 C36.3826327,24.4031626 30.6636235,33.7395952 30.6636235,44.2885515 C30.6636235,60.415117 43.9268575,73.5103732 60.2321176,73.5103732 C76.7807399,73.6316256 90.0439739,60.5363694 90.0439739,44.5310563 C90.0439739,33.012081 83.2298353,23.0693865 73.4953516,18.340544 Z M65.8294458,13.8542062 C69.3581961,9.73162555 74.7121621,7.54908286 80.0661281,8.03409235 L80.5528523,8.03409235 L80.3094902,8.51910183 C76.7807399,12.5204301 71.4267739,14.8242252 66.0728078,14.3392157 L65.4644026,14.3392157 L65.8294458,13.8542062 Z M33.3406065,7.18532574 L31.880434,5.36654016 L34.1923739,5.24528779 C41.6149176,4.7602783 48.9157804,7.67033523 53.9047033,13.3691967 L55.4865569,15.1879823 L53.174617,15.3092347 C45.6303922,15.7942441 38.3295294,12.7629349 33.3406065,7.18532574 Z M60.4754797,68.7815307 C46.8472026,68.7815307 35.7742275,57.8688172 35.7742275,44.4098039 C35.7742275,30.9507906 46.8472026,20.0380772 60.4754797,20.0380772 C74.1037569,20.0380772 85.176732,30.9507906 85.176732,44.4098039 C85.176732,57.8688172 74.1037569,68.7815307 60.4754797,68.7815307 Z" id="Shape"></path>
                </g>
            </g>
        </g>
    </g>
</svg>