<?xml version="1.0" encoding="UTF-8"?>
<svg width="145px" height="142px" viewBox="0 0 145 142" version="1.1" xmlns="http://www.w3.org/2000/svg" xmlns:xlink="http://www.w3.org/1999/xlink">
    <!-- Generator: Sketch 43.2 (39069) - http://www.bohemiancoding.com/sketch -->
    <title>Marshmellows</title>
    <desc>Created with Sketch.</desc>
    <defs></defs>
    <g id="Welcome" stroke="none" stroke-width="1" fill="none" fill-rule="evenodd">
        <g id="Desktop" transform="translate(-439.000000, -2142.000000)" fill-rule="nonzero" fill="#000000">
            <g id="One-Weekend" transform="translate(41.000000, 1962.000000)">
                <g id="Marshmellows" transform="translate(398.000000, 180.000000)">
                    <path d="M106.730644,40.6478675 C109.814354,41.5004555 113.240699,39.6247619 114.097285,36.5554451 C114.953871,33.4861284 113.069382,30.0757764 109.985671,29.2231884 C109.300402,29.0526708 108.443816,29.393706 108.272499,30.246294 C108.101181,30.9283644 108.443816,31.7809524 109.300402,31.95147 C111.013575,32.4630228 112.041478,34.1681988 111.527526,35.8733747 C111.013575,37.5785507 109.300402,38.6016563 107.58723,38.0901035 C104.503519,37.2375155 101.077174,39.1132091 100.220588,42.1825259 C99.364002,45.2518427 101.248492,48.6621946 104.332202,49.5147826 C105.017471,49.6853002 105.874057,49.344265 106.045375,48.491677 C106.216692,47.8096066 105.874057,46.9570186 105.017471,46.786501 C103.304299,46.2749482 102.276395,44.5697723 102.790347,42.8645963 C103.304299,41.1594203 105.188788,40.1363147 106.730644,40.6478675 Z" id="Shape"></path>
                    <path d="M117.694947,43.7171843 C120.778658,44.5697723 124.205003,42.6940787 125.061589,39.6247619 C125.918175,36.5554451 124.033685,33.1450932 120.949975,32.2925052 C120.264706,32.1219876 119.40812,32.4630228 119.236802,33.3156108 C119.065485,33.9976812 119.40812,34.8502692 120.264706,35.0207867 C121.977878,35.5323395 123.005782,37.2375155 122.49183,38.9426915 C121.977878,40.6478675 120.264706,41.6709731 118.551533,41.1594203 C115.467823,40.3068323 112.041478,42.1825259 111.184892,45.2518427 C110.328306,48.3211594 112.212795,51.7315114 115.296506,52.5840994 C115.981775,52.754617 116.838361,52.4135818 117.009678,51.5609938 C117.180995,50.8789234 116.838361,50.0263354 115.981775,49.8558178 C114.268602,49.344265 113.240699,47.639089 113.754651,45.933913 C114.268602,44.2287371 115.981775,43.2056315 117.694947,43.7171843 Z" id="Shape"></path>
                    <path d="M38.2037456,13.1945342 C35.1200352,14.3881573 33.57818,17.7985093 34.7774007,20.8678261 C35.9766214,23.9371429 39.4029663,25.4718012 42.4866767,24.2781781 C43.1719457,23.9371429 43.5145802,23.2550725 43.3432629,22.4024845 C43.0006285,21.7204141 42.3153595,21.3793789 41.4587733,21.5498965 C39.7456008,22.2319669 38.0324284,21.3793789 37.3471594,19.6742029 C36.6618904,17.9690269 37.5184766,16.2638509 39.2316491,15.5817805 C42.3153595,14.3881573 43.8572147,10.9778054 42.657994,7.90848861 C41.4587733,4.83917184 38.0324284,3.30451346 34.9487179,4.49813665 C34.263449,4.83917184 33.9208145,5.52124224 34.0921317,6.37383023 C34.4347662,7.05590062 35.1200352,7.39693582 35.9766214,7.22641822 C37.6897939,6.54434783 39.4029663,7.39693582 40.0882353,9.1021118 C40.7735043,10.8072878 39.916918,12.5124638 38.2037456,13.1945342 Z" id="Shape"></path>
                    <path d="M48.8254148,9.2726294 C45.7417044,10.4662526 44.1998492,13.8766046 45.3990699,16.9459213 C46.5982906,20.0152381 50.0246355,21.5498965 53.1083459,20.3562733 C53.7936149,20.0152381 54.1362494,19.3331677 53.9649321,18.4805797 C53.7936149,17.6279917 52.9370287,17.4574741 52.0804424,17.6279917 C50.36727,18.3100621 48.6540975,17.4574741 47.9688286,15.7522981 C47.2835596,14.0471222 48.1401458,12.3419462 49.8533183,11.6598758 C52.9370287,10.4662526 54.4788839,7.05590062 53.2796631,3.98658385 C52.0804424,0.917267081 48.6540975,-0.617391304 45.5703871,0.576231884 C45.0564354,1.08778468 44.5424837,1.76985507 44.8851181,2.62244306 C45.2277526,3.30451346 45.9130216,3.64554865 46.7696078,3.47503106 C48.4827803,2.79296066 50.1959527,3.64554865 50.8812217,5.35072464 C51.3951735,6.88538302 50.5385872,8.59055901 48.8254148,9.2726294 Z" id="Shape"></path>
                    <path d="M109.814354,116.869234 L106.216692,106.126625 C106.045375,105.615072 105.70274,105.274037 105.360106,105.10352 C105.017471,104.933002 104.503519,104.933002 103.989568,104.933002 L88.9136501,110.04853 C91.3120915,107.149731 92.6826295,103.568861 92.6826295,99.6469565 C92.6826295,90.4390062 76.5788084,72.3641408 74.865636,70.3179296 C74.180367,69.6358592 72.9811463,69.6358592 72.2958773,70.3179296 C70.4113876,72.3641408 54.4788839,90.4390062 54.4788839,99.6469565 C54.4788839,103.909896 56.1920563,108.002319 58.9331322,111.071636 L41.972725,106.126625 C41.4587733,105.956108 41.1161388,106.126625 40.602187,106.297143 C40.2595525,106.46766 39.916918,106.808696 39.7456008,107.320248 L36.6618904,118.062857 C36.3192559,118.915445 37.0045249,119.938551 37.8611111,120.109068 L49.3393665,123.51942 L36.8332076,127.78236 C35.9766214,128.123395 35.4626697,128.975983 35.8053042,129.999089 L39.4029663,140.57118 C39.5742836,141.082733 39.916918,141.423768 40.2595525,141.594286 C40.4308698,141.764803 40.7735043,141.764803 40.9448215,141.764803 C41.1161388,141.764803 41.287456,141.764803 41.4587733,141.594286 L72.9811463,131.022195 L104.503519,140.059627 L105.017471,140.059627 C105.360106,140.059627 105.531423,140.059627 105.874057,139.88911 C106.216692,139.718592 106.559326,139.377557 106.730644,138.866004 L109.814354,128.123395 C110.156988,127.270807 109.471719,126.247702 108.615133,126.077184 L97.4795123,122.83735 L108.957768,118.915445 C109.643037,118.57441 110.156988,117.721822 109.814354,116.869234 Z M103.646933,136.30824 L78.6346154,129.146501 L91.654726,124.713043 L105.70274,128.805466 L103.646933,136.30824 Z M74.0090498,113.970435 L73.6664153,113.970435 C69.7261187,113.970435 66.471091,110.901118 66.471091,107.320248 C66.471091,104.762484 70.5827049,99.1354037 73.8377325,95.213499 C77.0927602,99.1354037 81.2043741,104.762484 81.2043741,107.320248 C81.0330568,111.071636 77.9493464,113.799917 74.0090498,113.970435 Z M73.495098,74.0693168 C78.8059326,80.2079503 89.2562846,93.508323 89.2562846,99.8174741 C89.2562846,104.080414 87.2004776,107.831801 84.1167672,110.389565 C84.4594017,109.536977 84.630719,108.513872 84.630719,107.490766 C84.630719,102.545756 76.7501257,93.508323 75.2082705,91.6326294 C74.5230015,90.950559 73.3237808,90.950559 72.6385118,91.6326294 C71.0966566,93.3378054 63.2160633,102.375238 63.2160633,107.490766 C63.2160633,108.684389 63.3873806,109.878012 63.9013323,110.901118 C60.3036702,108.343354 58.076546,104.250932 58.076546,99.8174741 C57.7339115,93.508323 68.0129462,80.2079503 73.495098,74.0693168 Z M42.4866767,109.878012 L67.841629,117.210269 L54.8215184,121.643727 L40.4308698,117.551304 L42.4866767,109.878012 Z M41.8014077,137.842899 L39.4029663,130.510642 L103.475616,108.854907 L106.045375,116.187164 L41.8014077,137.842899 Z" id="Shape"></path>
                    <path d="M143.735168,79.1848447 L111.184892,67.0780952 L111.527526,66.0549896 C112.384113,64.0087785 112.212795,61.6215321 111.356209,59.5753209 C110.499623,57.5291097 108.78645,55.9944513 106.730644,55.1418634 L101.591126,53.2661698 C99.5353193,52.4135818 97.1368778,52.5840994 95.0810709,53.4366874 C93.025264,54.2892754 91.4834087,55.9944513 90.6268225,58.0406625 L90.1128708,59.0637681 L86.1725742,57.5291097 L86.5152086,56.5060041 C87.3717949,54.459793 87.2004776,52.0725466 86.3438914,50.0263354 C85.4873052,47.9801242 83.7741327,46.4454658 81.7183258,45.5928778 L76.5788084,43.7171843 C74.5230015,42.8645963 72.1245601,43.0351139 70.0687531,43.8877019 C68.0129462,44.7402899 66.471091,46.4454658 65.6145048,48.491677 L65.2718703,49.5147826 L60.9889392,47.9801242 C60.1323529,47.639089 59.1044495,48.1506418 58.761815,49.0032298 C58.4191805,49.8558178 58.9331322,50.8789234 59.7897185,51.2199586 L64.0726496,52.754617 L63.7300151,53.9482402 C62.8734289,55.9944513 63.0447461,58.3816977 63.9013323,60.4279089 C64.7579186,62.4741201 66.471091,64.0087785 68.5268979,64.8613665 L73.6664153,66.73706 C74.6943188,67.0780952 75.550905,67.2486128 76.5788084,67.2486128 C80.0051533,67.2486128 83.260181,65.2024017 84.4594017,61.7920497 L84.8020362,60.7689441 L88.7423328,62.3036025 L88.3996983,63.3267081 C86.6865259,67.589648 88.9136501,72.5346584 93.3678984,74.0693168 L98.5074158,75.9450104 C99.5353193,76.2860455 100.391905,76.4565631 101.419809,76.4565631 C104.846154,76.4565631 108.101181,74.410352 109.300402,71 L109.643037,69.9768944 L142.193313,82.0836439 C142.36463,82.0836439 142.535948,82.2541615 142.878582,82.2541615 C143.563851,82.2541615 144.24912,81.9131263 144.420437,81.2310559 C144.934389,80.3784679 144.591755,79.5258799 143.735168,79.1848447 Z M81.3756913,60.5984265 C80.3477878,63.1561905 77.6067119,64.5203313 75.0369532,63.4972257 L69.8974359,61.6215321 C68.6982152,61.1099793 67.6703117,60.2573913 67.15636,59.0637681 C66.6424082,57.8701449 66.6424082,56.5060041 66.9850427,55.312381 L68.0129462,52.754617 L68.0129462,52.754617 L68.0129462,52.754617 L69.0408497,50.196853 C69.5548014,49.0032298 70.4113876,47.9801242 71.6106083,47.4685714 C72.2958773,47.1275362 72.9811463,46.9570186 73.6664153,46.9570186 C74.180367,46.9570186 74.865636,47.1275362 75.3795877,47.2980538 L75.3795877,47.2980538 L80.5191051,49.1737474 C81.7183258,49.6853002 82.7462293,50.5378882 83.260181,51.7315114 C83.7741327,52.9251346 83.7741327,54.2892754 83.4314982,55.4828986 L83.0888638,56.5060041 L80.0051533,55.312381 C79.1485671,54.9713458 78.1206637,55.4828986 77.7780292,56.3354865 C77.4353947,57.1880745 77.9493464,58.2111801 78.8059326,58.5522153 L81.889643,59.7458385 L81.3756913,60.5984265 Z M106.216692,69.9768944 C105.188788,72.5346584 102.447712,73.8987992 99.8779537,72.8756936 L94.7384364,71 C92.1686777,69.9768944 90.7981398,67.2486128 91.8260432,64.6908489 L93.7105329,59.5753209 C94.3958019,57.5291097 96.2802916,56.3354865 98.3360985,56.3354865 C98.8500503,56.3354865 99.5353193,56.5060041 100.049271,56.6765217 L105.188788,58.5522153 C106.388009,59.0637681 107.415913,59.9163561 107.929864,61.1099793 C108.443816,62.3036025 108.443816,63.6677433 108.101181,64.8613665 L107.758547,65.884472 L104.846154,64.8613665 C103.989568,64.5203313 102.961664,65.0318841 102.61903,65.884472 C102.276395,66.73706 102.790347,67.7601656 103.646933,68.1012008 L106.559326,69.1243064 L106.216692,69.9768944 Z" id="Shape"></path>
                    <path d="M41.287456,42.8645963 C42.3153595,46.4454658 45.7417044,48.8327122 49.3393665,48.8327122 C50.0246355,48.8327122 50.8812217,48.6621946 51.7378079,48.491677 L57.0486425,46.9570186 C61.5028909,45.5928778 64.0726496,40.9889027 62.8734289,36.5554451 L62.5307944,35.5323395 L66.6424082,34.3387164 L66.9850427,35.3618219 C67.6703117,37.5785507 69.0408497,39.2837267 70.9253394,40.3068323 C72.1245601,40.9889027 73.495098,41.3299379 75.0369532,41.3299379 C75.8935395,41.3299379 76.5788084,41.1594203 77.4353947,40.9889027 L82.7462293,39.4542443 C84.9733534,38.7721739 86.6865259,37.4080331 87.7144294,35.5323395 C88.7423328,33.656646 89.0849673,31.2693996 88.3996983,29.2231884 L87.8857466,28.3706004 L92.339995,27.1769772 C93.1965812,26.835942 93.7105329,25.983354 93.5392157,25.130766 C93.1965812,24.2781781 92.339995,23.7666253 91.4834087,23.9371429 L86.8578431,24.9602484 L86.5152086,23.9371429 C85.1446707,19.5036853 80.5191051,16.9459213 76.0648567,18.1395445 L70.9253394,19.8447205 C66.471091,21.2088613 63.9013323,25.8128364 65.100553,30.246294 L65.4431875,31.2693996 L61.3315737,32.4630228 L60.9889392,31.4399172 C60.3036702,29.2231884 58.9331322,27.5180124 57.0486425,26.4949068 C55.1641528,25.4718012 52.7657114,25.130766 50.7099045,25.8128364 L45.3990699,27.3474948 C43.1719457,28.0295652 41.4587733,29.393706 40.4308698,31.2693996 C39.4029663,33.1450932 39.0603318,35.5323395 39.7456008,37.5785507 L40.0882353,38.6016563 L1.37053796,49.6853002 C0.513951735,50.0263354 2.12274642e-13,50.8789234 0.171317245,51.7315114 C0.34263449,52.4135818 1.02790347,52.9251346 1.88448969,52.9251346 L2.39844143,52.9251346 L41.1161388,41.8414907 L41.287456,42.8645963 Z M68.5268979,29.2231884 C68.1842634,28.0295652 68.3555807,26.6654244 68.8695324,25.4718012 C69.5548014,24.2781781 70.5827049,23.4255901 71.7819256,23.0845549 L77.0927602,21.5498965 C77.6067119,21.3793789 77.9493464,21.3793789 78.4632981,21.3793789 C80.6904223,21.3793789 82.574912,22.7435197 83.260181,24.9602484 L83.94545,27.5180124 L83.94545,27.5180124 L83.94545,27.5180124 L84.630719,30.0757764 C84.9733534,31.2693996 84.8020362,32.6335404 84.2880845,33.8271636 C83.6028155,35.0207867 82.574912,35.8733747 81.3756913,36.2144099 L76.0648567,37.7490683 C74.865636,38.0901035 73.495098,37.9195859 72.2958773,37.4080331 C71.0966566,36.7259627 70.2400704,35.7028571 69.8974359,34.509234 L69.7261187,33.4861284 L72.9811463,32.6335404 C73.8377325,32.2925052 74.3516843,31.4399172 74.180367,30.5873292 C73.8377325,29.7347412 72.9811463,29.2231884 72.1245601,29.393706 L68.8695324,30.246294 L68.5268979,29.2231884 Z M43.0006285,36.5554451 C42.657994,35.3618219 42.8293112,33.9976812 43.3432629,32.804058 C44.0285319,31.6104348 45.0564354,30.7578468 46.2556561,30.4168116 L51.5664907,28.8821532 C52.0804424,28.7116356 52.4230769,28.7116356 52.9370287,28.7116356 C53.7936149,28.7116356 54.6502011,28.8821532 55.3354701,29.393706 C56.5346908,30.0757764 57.391277,31.098882 57.7339115,32.2925052 L59.2757667,37.5785507 C59.6184012,38.7721739 59.447084,40.1363147 58.9331322,41.3299379 C58.2478632,42.5235611 57.2199598,43.3761491 56.0207391,43.7171843 L50.7099045,45.2518427 C48.1401458,45.933913 45.2277526,44.5697723 44.5424837,41.8414907 L44.1998492,40.8183851 L47.1122423,39.9657971 C47.9688286,39.6247619 48.4827803,38.7721739 48.311463,37.9195859 C47.9688286,37.0669979 47.1122423,36.5554451 46.2556561,36.7259627 L43.3432629,37.5785507 L43.0006285,36.5554451 Z" id="Shape"></path>
                </g>
            </g>
        </g>
    </g>
</svg>