<?xml version="1.0" encoding="UTF-8"?>
<svg width="169px" height="83px" viewBox="0 0 169 83" version="1.1" xmlns="http://www.w3.org/2000/svg" xmlns:xlink="http://www.w3.org/1999/xlink">
    <!-- Generator: Sketch 43.2 (39069) - http://www.bohemiancoding.com/sketch -->
    <title>People</title>
    <desc>Created with Sketch.</desc>
    <defs></defs>
    <g id="Welcome" stroke="none" stroke-width="1" fill="none" fill-rule="evenodd">
        <g id="Desktop" transform="translate(-747.000000, -2179.000000)" fill-rule="nonzero" fill="#1E120D">
            <g id="One-Weekend" transform="translate(41.000000, 1962.000000)">
                <g id="People" transform="translate(706.000000, 217.000000)">
                    <g id="Group">
                        <path d="M29.8374167,15.7818642 C34.2104234,15.7818642 37.672387,12.3301221 37.672387,7.9700268 C37.672387,3.60993151 34.2104234,0.158189398 29.8374167,0.158189398 C25.4644101,0.158189398 22.0024465,3.60993151 22.0024465,7.9700268 C22.0024465,12.3301221 25.4644101,15.7818642 29.8374167,15.7818642 Z M29.8374167,4.15494342 C32.0239201,4.15494342 33.6637975,5.97164979 33.6637975,7.9700268 C33.6637975,9.96840381 31.8417114,11.7851102 29.8374167,11.7851102 C27.833122,11.7851102 26.0110359,9.96840381 26.0110359,7.9700268 C26.0110359,5.97164979 27.6509134,4.15494342 29.8374167,4.15494342 Z" id="Shape"></path>
                        <path d="M168.133752,0.884871948 C167.404918,0.158189398 166.129458,0.158189398 165.400623,0.884871948 L145.904302,19.9602889 L132.603073,19.9602889 L113.288961,0.70320131 C112.560126,-0.0234812388 111.284666,-0.0234812388 110.555831,0.70320131 L91.2417186,19.9602889 L77.94049,19.9602889 L58.6263772,0.70320131 L58.4441686,0.521530673 C58.26196,0.521530673 58.26196,0.339860036 58.0797514,0.339860036 L57.8975428,0.339860036 C57.7153342,0.339860036 57.5331256,0.158189398 57.350917,0.158189398 L57.1687084,0.158189398 C56.9864997,0.158189398 56.8042911,0.158189398 56.6220825,0.339860036 L56.4398739,0.521530673 C56.2576653,0.521530673 56.0754567,0.70320131 56.0754567,0.70320131 L36.3969267,19.9602889 L23.0956981,19.9602889 L3.78158536,0.70320131 C3.05275091,-0.0234812388 1.77729064,-0.0234812388 1.04845619,0.70320131 C0.319621749,1.42988386 0.319621749,2.70157832 1.04845619,3.42826087 L20.5447776,22.8670191 L20.5447776,51.3893091 L20.5447776,80.4566111 C20.5447776,81.5466349 21.4558206,82.4549881 22.5490723,82.4549881 C23.6423239,82.4549881 24.553367,81.5466349 24.553367,80.4566111 L24.553367,53.3876861 L35.4858837,53.3876861 L35.4858837,80.4566111 C35.4858837,81.5466349 36.3969267,82.4549881 37.4901784,82.4549881 C38.58343,82.4549881 39.4944731,81.5466349 39.4944731,80.4566111 L39.4944731,51.3893091 L39.4944731,22.6853484 L57.1687084,4.88162597 L74.660735,22.3220071 L68.101225,57.0210989 C67.9190164,57.5661108 68.101225,58.1111227 68.4656422,58.6561346 C68.8300595,59.0194759 69.3766853,59.3828172 69.9233111,59.3828172 L75.3895695,59.3828172 L75.3895695,80.4566111 C75.3895695,81.5466349 76.3006125,82.4549881 77.3938642,82.4549881 C78.4871158,82.4549881 79.3981589,81.5466349 79.3981589,80.4566111 L79.3981589,59.3828172 L89.7840497,59.3828172 L89.7840497,80.4566111 C89.7840497,81.5466349 90.6950928,82.4549881 91.7883444,82.4549881 C92.8815961,82.4549881 93.7926392,81.5466349 93.7926392,80.4566111 L93.7926392,59.3828172 L99.2588975,59.3828172 C99.8055233,59.3828172 100.352149,59.2011465 100.716566,58.6561346 C101.080984,58.2927933 101.263192,57.5661108 101.080984,57.0210989 L94.5214736,22.3220071 L111.831292,4.88162597 L129.869944,22.8670191 L129.869944,51.3893091 L129.869944,80.4566111 C129.869944,81.5466349 130.780987,82.4549881 131.874239,82.4549881 C132.967491,82.4549881 133.878534,81.5466349 133.878534,80.4566111 L133.878534,53.3876861 L144.81105,53.3876861 L144.81105,80.4566111 C144.81105,81.5466349 145.722093,82.4549881 146.815345,82.4549881 C147.908597,82.4549881 148.81964,81.5466349 148.81964,80.4566111 L148.81964,51.3893091 L148.81964,22.6853484 L168.315961,3.42826087 C168.862587,2.70157832 168.862587,1.6115545 168.133752,0.884871948 Z M24.3711584,23.9570429 L35.303675,23.9570429 L35.303675,49.5726027 L24.3711584,49.5726027 L24.3711584,23.9570429 Z M72.2920231,55.3860631 L78.3049072,23.7753722 L90.6950928,23.7753722 L96.7079769,55.3860631 L72.2920231,55.3860631 Z M133.878534,23.9570429 L144.81105,23.9570429 L144.81105,49.5726027 L133.878534,49.5726027 L133.878534,23.9570429 Z" id="Shape"></path>
                        <path d="M139.344792,15.7818642 C143.717799,15.7818642 147.179762,12.3301221 147.179762,7.9700268 C147.179762,3.60993151 143.717799,0.158189398 139.344792,0.158189398 C134.971785,0.158189398 131.509822,3.60993151 131.509822,7.9700268 C131.509822,12.3301221 134.971785,15.7818642 139.344792,15.7818642 Z M139.344792,4.15494342 C141.531295,4.15494342 143.171173,5.97164979 143.171173,7.9700268 C143.171173,9.96840381 141.349087,11.7851102 139.344792,11.7851102 C137.158289,11.7851102 135.518411,9.96840381 135.518411,7.9700268 C135.518411,5.97164979 137.158289,4.15494342 139.344792,4.15494342 Z" id="Shape"></path>
                        <path d="M84.5,15.7818642 C88.8730067,15.7818642 92.3349703,12.3301221 92.3349703,7.9700268 C92.3349703,3.60993151 88.8730067,0.158189398 84.5,0.158189398 C80.1269933,0.158189398 76.6650297,3.60993151 76.6650297,7.9700268 C76.6650297,12.3301221 80.1269933,15.7818642 84.5,15.7818642 Z M84.5,4.15494342 C86.6865033,4.15494342 88.3263808,5.97164979 88.3263808,7.9700268 C88.3263808,9.96840381 86.5042947,11.7851102 84.5,11.7851102 C82.3134967,11.7851102 80.6736192,9.96840381 80.6736192,7.9700268 C80.6736192,5.97164979 82.3134967,4.15494342 84.5,4.15494342 Z" id="Shape"></path>
                    </g>
                </g>
            </g>
        </g>
    </g>
</svg>